<svg xmlns="http://www.w3.org/2000/svg" viewBox="0 0 512 512" fill="none">
    <path
        d="M346.58,447.3c2.72-4.37.38-8.66-4.73-12.09-5.35-3.46-12.1-5.18-17.84-8.37-9.25-4.89-17.31-12.59-23.11-21.3-14.2-22.56-14.49-48.35-11.32-78.53,6.88-71.92,57.62-121.4,122.84-167.83,10.49-7.31,23.52-16.57,23.03-30.48-.54-16.05-15.12-23.3-27.39-30.43-12.57-7.21-31.67-20.99-31.5,1.61.24,6.21,1.91,12.95,1.8,19.4-1.06,39.29-29,59.63-64.96,76.36-68.82,34.01-144.06,9.62-218.39-25.76-4.34-1.79-8.69-3.23-12.93-3.78-11.17-1.85-21.6,4.69-25.55,15.07-2.08,5.29-2.41,11.06-2.55,16.83-.07,3.79-.07,7.74-.07,11.59.03,13.85-1.85,35.5,16.06,25.95,4.29-2.45,8.06-5.98,12.25-8.93,4.06-2.88,8.28-5.2,13.01-7.07,33.46-12.56,63.01,3.1,92.75,24.87,61.41,43.09,77.31,120.61,84.05,201.52,1.58,14.65,8.78,27.38,24.27,27.84,8,.59,16.93-4.4,24.59-8.84,4.66-2.7,9.58-5.54,14.19-8.27,4.25-2.48,9.04-5.58,11.45-9.3l.06-.1Z"
        fill="#eceddb"
    />
    <path
        d="M150.49,310.31c-10.99-5-22.4.15-27.27,10.8-3.49,7.25-2.9,16.17-3,26.13.03,9.89-.06,21.78.05,31.52.12,7.32.76,14.11,4.85,20.28,2.66,4.1,6.52,7.57,11.12,9.32,10,4.08,20-.12,28.96-5.49,6.69-4,16.21-8.74,20.55-14.64,5.26-7.26,2.96-16.26,1.47-24.62-4.19-19.47-18.65-44.47-36.61-53.26l-.13-.06Z"
        fill="#eceddb"
    />
    <path
        d="M195.39,267.42c-29.54-25.79-55.49-38.86-77.12-38.86h0c-13.16,0-24.89,5.1-34.87,15.17-12,12.1-18.88,29.19-18.88,46.89v63.48c0,8.6,4.61,16.55,12.09,20.81l30.36,17.32v-61.79c0-9.77,3.79-18.98,10.67-25.92,10.86-10.96,27.64-13.04,40.82-5.06,13.36,8.09,25.97,22.52,34.6,39.61,6.44,12.75,9.84,27.22,9.84,41.84v52.15c0,8.6,4.61,16.55,12.09,20.81l44.49,25.39c-.54-42.3-4.53-79.7-11.9-111.46-10.59-45.64-28.15-79.41-52.17-100.39Z"
        fill="#8195a3"
    />
    <path
        d="M379.47,282.03c-8.45,13.57-18.02,34.61-12.67,50.38,3.01,9.02,12.31,14.33,21.58,13.58,8.72-.26,19.35-7.82,28.68-13.14,9.69-5.96,20.41-11.47,29.36-18.03,15.24-11.73,14.67-32.55-1.1-43.64-7.15-5.04-15.25-10.03-23.25-13.92-7.67-3.61-13.98-3.03-20.31,1.47-8.82,6.16-16.17,13.91-22.19,23.15l-.09.14Z"
        fill="#eceddb"
    />
    <path
        d="M226.68,141.67c15.42.71,38.09-1.33,48.52-13.63,6.13-7.11,5.7-17.9.42-25.36-4.63-7.3-16.29-12.77-25.38-18.26-9.71-5.41-19.51-11.91-29.37-16.41-14.33-6.33-30.58.53-34.7,16.01-2.1,8.23-1.52,17.16-1.64,25.81-.03,6.29.72,14.68,4.7,18.9,7.83,8.2,25.98,12.19,37.28,12.93h.17Z"
        fill="#eceddb"
    />
    <path
        d="M286.37,192.62c37.1-12.69,61.4-28.63,72.21-47.36h0s0,0,0,0c6.58-11.4,8.03-24.11,4.3-37.78-4.48-16.44-15.84-30.94-31.17-39.79l-54.98-31.74c-7.45-4.3-16.64-4.28-24.07.06l-30.18,17.63,53.51,30.9c8.46,4.89,14.54,12.77,17.11,22.2,4.06,14.88-2.53,30.46-16.02,37.88-13.68,7.53-32.49,11.23-51.6,10.16-14.26-.8-28.5-5.09-41.16-12.4l-45.16-26.08c-7.45-4.3-16.64-4.28-24.07.06l-44.23,25.83c36.9,20.68,71.29,35.93,102.48,45.42,44.82,13.65,82.85,15.33,113.02,5.01Z"
        fill="#8195a3"
    />
    <path
        d="M376.68,357.6c-14.92-3.93-25.11-17.42-24.79-32.82.32-15.61,6.52-33.75,17-49.77,7.82-11.95,18.65-22.14,31.32-29.45l45.16-26.08c7.45-4.3,12.03-12.27,11.98-20.87l-.26-51.22c-36.36,21.62-66.76,43.77-90.58,66.04-34.23,31.99-54.7,64.08-60.85,95.38-7.56,38.48-5.91,67.49,4.91,86.22h0s0,0,0,0c6.58,11.4,16.87,19.01,30.57,22.62,16.48,4.34,34.72,1.75,50.04-7.09l54.98-31.74c7.45-4.3,12.03-12.27,11.98-20.87l-.17-34.95-53.51,30.9c-8.46,4.89-18.33,6.21-27.78,3.72Z"
        fill="#8195a3"
    />
</svg>
